<!-- Mont Bagzane — Niger, 2022m, crest. Massif de l'Aïr, basalte volcanique noir, transition Sahel/Sahara. -->
<svg xmlns="http://www.w3.org/2000/svg" viewBox="0 0 200 200">
  <defs><linearGradient id="sky_ne" x1="0" y1="0" x2="0" y2="1"><stop offset="0%" stop-color="#FED7AA"/><stop offset="100%" stop-color="#EA580C"/></linearGradient></defs>
  <rect width="200" height="200" fill="url(#sky_ne)"/>
  <circle cx="160" cy="55" r="20" fill="#DC2626" opacity="0.85"/>
  <rect y="150" width="200" height="8" fill="#FCD34D" opacity="0.4"/>
  <polygon points="0,170 12,155 22,170" fill="#1C1917" opacity="0.65"/>
  <polygon points="180,170 192,155 200,170" fill="#1C1917" opacity="0.65"/>
  <polygon points="0,180 10,150 30,120 45,100 60,118 80,90 100,108 125,75 145,105 165,90 185,120 200,160 200,180" fill="#1C1917"/>
  <polygon points="30,120 45,100 60,118 45,130" fill="#44403C"/>
  <polygon points="60,118 80,90 100,108 80,128" fill="#44403C"/>
  <polygon points="100,108 125,75 145,105 125,120" fill="#57534E"/>
  <polygon points="125,75 145,105 130,90" fill="#78716C"/>
  <polygon points="145,105 165,90 185,120 165,130" fill="#44403C"/>
  <polygon points="10,150 30,120 30,160" fill="#0C0A09"/>
  <polygon points="45,100 60,118 60,140" fill="#0C0A09"/>
  <polygon points="80,90 100,108 100,135" fill="#0C0A09"/>
  <polygon points="125,75 145,105 145,135" fill="#0C0A09"/>
  <polygon points="165,90 185,120 185,150" fill="#0C0A09"/>
  <polygon points="0,200 0,180 60,184 130,182 200,184 200,200" fill="#FBBF24"/>
  <polygon points="0,200 25,191 70,194 130,190 200,193 200,200" fill="#D97706"/>
  <path d="M 30,196 q 12,-5 24,0" stroke="#92400E" stroke-width="1" fill="none"/>
  <path d="M 140,196 q 12,-4 24,0" stroke="#92400E" stroke-width="1" fill="none"/>
</svg>
